<svg xmlns="http://www.w3.org/2000/svg" width="13.242" height="13.251" viewBox="0 0 13.242 13.251"><defs><style>.a{fill:#25282e;}</style></defs><path class="a" d="M12.541,5.578c-.155-.128-.39-.321-.417-.421a1.578,1.578,0,0,1,.153-.6,1.462,1.462,0,0,0,.1-1.241,1.474,1.474,0,0,0-1.134-.542,1.611,1.611,0,0,1-.587-.163,1.611,1.611,0,0,1-.163-.587A1.474,1.474,0,0,0,9.945.888,1.462,1.462,0,0,0,8.7.983a1.581,1.581,0,0,1-.6.153C8,1.109,7.809.874,7.681.718,7.4.382,7.09,0,6.63,0S5.855.382,5.578.718c-.128.155-.321.39-.421.417a1.578,1.578,0,0,1-.6-.153,1.462,1.462,0,0,0-1.241-.1,1.474,1.474,0,0,0-.542,1.134,1.611,1.611,0,0,1-.163.587,1.611,1.611,0,0,1-.587.163A1.474,1.474,0,0,0,.89,3.308a1.462,1.462,0,0,0,.1,1.241,1.579,1.579,0,0,1,.153.6c-.027.1-.262.293-.417.421C.382,5.855,0,6.169,0,6.63s.382.77.718,1.051c.155.128.39.321.417.421a1.578,1.578,0,0,1-.153.6,1.462,1.462,0,0,0-.1,1.241,1.474,1.474,0,0,0,1.134.542,1.611,1.611,0,0,1,.587.163,1.611,1.611,0,0,1,.163.587,1.474,1.474,0,0,0,.542,1.134,1.462,1.462,0,0,0,1.241-.1,1.579,1.579,0,0,1,.6-.153c.1.027.293.262.421.417.277.337.591.718,1.051.718s.774-.382,1.051-.718c.128-.155.321-.39.421-.417a1.58,1.58,0,0,1,.6.153,1.462,1.462,0,0,0,1.241.1,1.474,1.474,0,0,0,.542-1.134,1.611,1.611,0,0,1,.163-.587,1.611,1.611,0,0,1,.587-.163,1.474,1.474,0,0,0,1.134-.542,1.462,1.462,0,0,0-.1-1.241,1.579,1.579,0,0,1-.153-.6c.027-.1.262-.293.417-.421.337-.277.718-.591.718-1.051A1.466,1.466,0,0,0,12.541,5.578ZM12.055,7.09a1.756,1.756,0,0,0-.67.815,1.8,1.8,0,0,0,.175,1.067,1.575,1.575,0,0,1,.15.591c-.046.079-.432.143-.6.171a1.782,1.782,0,0,0-1,.377,1.782,1.782,0,0,0-.377,1c-.028.165-.092.552-.171.6A.315.315,0,0,1,9.4,11.7a3.271,3.271,0,0,1-.431-.14A1.8,1.8,0,0,0,7.9,11.385a1.756,1.756,0,0,0-.814.67c-.117.143-.361.439-.46.439s-.343-.3-.46-.439a1.756,1.756,0,0,0-.815-.67.934.934,0,0,0-.243-.031,2.455,2.455,0,0,0-.824.206,1.572,1.572,0,0,1-.591.15c-.079-.046-.143-.432-.171-.6a1.781,1.781,0,0,0-.377-1,1.781,1.781,0,0,0-1-.377c-.165-.028-.552-.092-.6-.171a.312.312,0,0,1,.009-.16,3.287,3.287,0,0,1,.14-.431A1.8,1.8,0,0,0,1.874,7.9,1.757,1.757,0,0,0,1.2,7.09c-.143-.117-.439-.361-.439-.46s.3-.343.439-.46a1.756,1.756,0,0,0,.67-.815A1.8,1.8,0,0,0,1.7,4.288,1.575,1.575,0,0,1,1.55,3.7c.046-.079.432-.143.6-.171a1.782,1.782,0,0,0,1-.377,1.782,1.782,0,0,0,.377-1c.028-.165.092-.552.171-.6a.315.315,0,0,1,.16.009,3.272,3.272,0,0,1,.431.14,1.8,1.8,0,0,0,1.067.175,1.756,1.756,0,0,0,.814-.67c.117-.143.361-.439.46-.439s.343.3.46.439a1.756,1.756,0,0,0,.815.67A1.8,1.8,0,0,0,8.972,1.7a1.575,1.575,0,0,1,.591-.15c.079.046.143.432.171.6a1.782,1.782,0,0,0,.377,1,1.782,1.782,0,0,0,1,.377c.165.028.552.092.6.171a.315.315,0,0,1-.009.16,3.271,3.271,0,0,1-.14.431,1.8,1.8,0,0,0-.175,1.067,1.756,1.756,0,0,0,.67.814c.143.117.439.361.439.46S12.2,6.973,12.055,7.09Zm0,0"/><path class="a" d="M167.616,163.018a.383.383,0,0,0-.541,0l-4.057,4.057a.383.383,0,0,0,.541.541l4.057-4.057a.383.383,0,0,0,0-.541Zm0,0" transform="translate(-158.687 -158.687)"/><path class="a" d="M153.717,154.816a1.1,1.1,0,1,0-1.1-1.1A1.1,1.1,0,0,0,153.717,154.816Zm0-1.434a.335.335,0,1,1-.335.335A.335.335,0,0,1,153.717,153.382Zm0,0" transform="translate(-148.665 -148.665)"/><path class="a" d="M275.561,274.461a1.1,1.1,0,1,0,1.1,1.1A1.1,1.1,0,0,0,275.561,274.461Zm0,1.434a.139.139,0,1,1,0,.005Zm0,0" transform="translate(-267.353 -267.353)"/></svg>