<?xml version="1.0" encoding="utf-8"?>
<!-- Generator: Adobe Illustrator 26.0.0, SVG Export Plug-In . SVG Version: 6.00 Build 0)  -->
<svg version="1.1" id="Layer_1" xmlns="http://www.w3.org/2000/svg" xmlns:xlink="http://www.w3.org/1999/xlink" x="0px" y="0px"
	 viewBox="0 0 130.9 137.5" style="enable-background:new 0 0 130.9 137.5;" xml:space="preserve">
<style type="text/css">
	.st0{fill:#FFFFFF;}
	.st1{fill:#EC0F78;}
</style>
<g>
	<g>
		<path class="st0" d="M6.8,110.9C5,110.9,4,110,4,108.2V85.4c0-1.8,1-2.7,2.8-2.7h13c1.8,0,2.7,0.9,2.7,2.7v1.9
			c0,1.8-0.9,2.7-2.7,2.7h-7.2v3h5.1c1.8,0,2.8,0.9,2.8,2.7v1.9c0,1.8-1,2.7-2.8,2.7h-5.1v3.2h7.6c1.8,0,2.8,0.9,2.8,2.7v1.9
			c0,1.8-1,2.7-2.8,2.7H6.8z"/>
		<path class="st0" d="M44.3,110.9c-1.5,0-2.6-0.8-3.1-2.3c0,0,0,0,0,0l-0.5-2.6h-7.6l-0.5,2.6c-0.4,1.5-1.4,2.3-3,2.3h-3.1
			c-1,0-1.7-0.3-2.1-0.9c-0.4-0.6-0.5-1.4-0.1-2.3l7.6-22.9c0.5-1.5,1.5-2.2,3.1-2.2H39c1.5,0,2.6,0.7,3.1,2.2l7.6,22.9
			c0.3,0.9,0.3,1.7-0.1,2.3c-0.4,0.6-1.1,0.9-2.1,0.9H44.3z M38.7,99.2l-0.8-3.6c-0.1-0.5-0.3-1-0.4-1.6c-0.1-0.6-0.3-1.2-0.4-1.7
			l-0.2-1.1c0,0-0.2,1.1-0.2,1.1c-0.1,0.5-0.2,1.1-0.4,1.7c-0.1,0.6-0.2,1.2-0.4,1.6l-0.9,3.6H38.7z"/>
		<path class="st0" d="M56.3,110.9c-1.8,0-2.7-0.9-2.7-2.7V90.1h-5.2c-1.8,0-2.7-0.9-2.7-2.7v-1.9c0-1.8,0.9-2.7,2.7-2.7h19
			c1.8,0,2.7,0.9,2.7,2.7v1.9c0,1.8-0.9,2.7-2.7,2.7h-5.2v18.2c0,1.8-0.9,2.7-2.7,2.7H56.3z"/>
		<path class="st0" d="M74.2,110.9c-1.8,0-2.8-0.9-2.8-2.7V85.4c0-1.8,1-2.7,2.8-2.7H87c1.8,0,2.7,0.9,2.7,2.7v1.9
			c0,1.8-0.9,2.7-2.7,2.7h-7V94h5.2c1.8,0,2.8,1,2.8,2.8v1.9c0,1.8-1,2.7-2.8,2.7h-5.2v6.9c0,1.8-0.9,2.7-2.7,2.7H74.2z"/>
		<path class="st0" d="M94.7,110.9c-1.8,0-2.8-0.9-2.8-2.7V85.4c0-1.8,1-2.7,2.8-2.7h3.1c1.8,0,2.7,0.9,2.7,2.7v22.8
			c0,1.8-0.9,2.7-2.7,2.7H94.7z"/>
		<path class="st0" d="M113.1,110.9c-1.8,0-2.7-0.9-2.7-2.7V90.1h-5.2c-1.8,0-2.7-0.9-2.7-2.7v-1.9c0-1.8,0.9-2.7,2.7-2.7h19
			c1.8,0,2.7,0.9,2.7,2.7v1.9c0,1.8-0.9,2.7-2.7,2.7h-5.2v18.2c0,1.8-0.9,2.7-2.7,2.7H113.1z"/>
	</g>
	<g>
		<g>
			<g>
				<path class="st0" d="M91.6,46.1c-0.3-0.3-1-0.6-3.3-1c-0.7-0.1-1.4-0.2-1.8-0.3l-0.3-1l0,0c0-0.1-0.7-1.9-1.7-3.9
					c0.9-1.1,3.1-4.1,3-7.7c-0.1-2.5-1-4.3-2.5-5.1c-1.1-0.6-2.5-0.7-4.1-0.3c-1.7,0.4-3.6,1.2-5.9,2.6c-1.3-0.3-6.2-1.3-9.5-0.8
					c-3.2-0.5-8.2,0.5-9.5,0.8c-2.2-1.3-4.2-2.2-5.9-2.6c-1.7-0.4-3-0.3-4.1,0.3c-1.6,0.8-2.4,2.6-2.5,5.1c-0.1,3.6,2,6.6,3,7.7
					c-1,2-1.7,3.8-1.7,3.9l-0.3,1c-0.4,0.1-1.1,0.2-1.8,0.3c-2.3,0.4-3,0.8-3.3,1c-0.6,0.5-0.8,1.5-0.6,3.5c0.1,0.9,0.2,1.7,0.2,2.1
					c0.4,2.7,1.1,6.2,1.1,6.2l0.8-0.2c0,0,0.3,0.9,1.1,2.8c1.9,4.4,4.2,6.5,4.2,6.5l1.6,0l0,2l5.1,1.4l0,0l0.8,0.2l4.7,1
					c0.3,0.8,0.6,1.5,0.7,1.9c0.1,0.4,0.4,0.7,0.7,0.9c0.4,0.3,1,0.7,1.7,0.9c1.2,0.4,3.6,0.5,4.1,0.6l0,0c0,0,0,0,0,0h0l0,0
					c0.6,0,3-0.2,4.1-0.6c0.7-0.2,1.3-0.6,1.7-0.9c0.3-0.2,0.5-0.6,0.7-0.9c0.2-0.4,0.4-1.1,0.7-1.9l4.7-1l0.8-0.2l0,0l5.1-1.4l0-2
					l1.6,0c0,0,2.3-2.2,4.2-6.5c0.8-2,1.1-2.8,1.1-2.8l0.8,0.2c0,0,0.8-3.6,1.1-6.2c0.1-0.4,0.2-1.2,0.2-2.1
					C92.4,47.6,92.2,46.6,91.6,46.1z M70.2,73.2c-0.7,0.9-3.8,1.1-4.6,1.2c-0.1,0-0.1,0-0.1,0c0,0-0.1,0-0.1,0
					c-0.9-0.1-3.9-0.3-4.6-1.2c-0.2-0.3-1.3-3-2.2-5.2c0.5,0.1,1.1,0.3,1.8,0.3c1.8,0.1,3.3-0.3,4.1-0.7c0.5-0.3,0.9-0.7,1.1-0.9
					c0.2,0.2,0.6,0.6,1.1,0.9c0.8,0.4,2.3,0.8,4.1,0.7c0.7,0,1.4-0.2,1.8-0.3C71.5,70.2,70.5,72.8,70.2,73.2z M64.9,30.2
					c0.1,0,0.1,0,0.2,0c0.1,0,0.2,0,0.3,0.1c0.1,0,0.1,0,0.1,0c0,0,0,0,0,0c0,0,0,0,0,0c0,0,0,0,0.1,0c0.1,0,0.2,0,0.3-0.1
					c0.1,0,0.1,0,0.2,0l0.8-0.1c3.4-0.1,7.9,0.9,8,0.9l0.3,0.1l0.3-0.2c5.1-3.1,7.5-3,8.6-2.4c1.3,0.7,1.6,2.4,1.7,3.7
					c0.1,3.7-2.9,6.9-2.9,6.9l-0.4,0.4l0.3,0.5c1,2,1.8,4,1.8,4.1l0.7,2l0.5,0.1c0,0,1.1,0.1,2.2,0.3c1.8,0.3,2.4,0.6,2.5,0.7
					c0.1,0.1,0.2,0.6,0.1,2.3c0,0.4-0.1,0.8-0.1,1.1c0,0,0,0,0,0c0,0.1,0,0.3,0,0.4c0,0.3-0.1,0.5-0.1,0.5l0,0
					c-0.1,0.5-0.2,1-0.3,1.6c-0.5,2.6-0.6,2.9-0.6,2.9l-2.9,0.4l1.7,1.6c0,0-1.1,2.9-2.2,4.5c-1,1.7-2.3,2.9-2.3,2.9l-2.1,0l0,2.2
					L77,69.1l0,0L73.3,70c1-2.6,2.1-5.6,2.2-5.9c0.2-0.6,0-1.2,0-1.2l-4.7-8.7c0.1,0.1,0.2,0.2,0.3,0.3c-0.9-1.2-2.6-3.9-2.6-3.9
					l-0.1,0c0,0.1,0.1,0.1,0.1,0.2c0,0,0,0.1,0,0.1c-0.2,1.2,1.3,4.4,1.3,4.4s1.9,3.5,3.1,5.8l-5.4,2.3l6-0.9c0.1,0,0.1,0,0.2,0.1
					l0.2,0.4c0.1,0.1,0.1,0.4,0.1,0.6c0,0.4-0.1,0.7-0.1,1l0,0l-5.7-0.4l5.1,1.7c-0.3,0.3-0.6,0.6-1.1,0.8c0,0,0,0,0,0
					c-0.1,0-0.2,0-0.3,0.1c-1.3,0.3-2.9,0.3-3.8-0.2c-1-0.4-1.9-2-1.9-2l0.1-3l-0.7,1.4l-0.7-1.4l0.1,3c0,0-1,1.5-1.9,2
					c-1,0.4-2.5,0.5-3.8,0.2c-0.1,0-0.2,0-0.3-0.1c0,0,0,0,0,0c-0.4-0.1-0.8-0.4-1.1-0.8l5.1-1.7l-5.7,0.4l0,0
					c-0.1-0.3-0.1-0.7-0.1-1c0-0.2,0-0.4,0.1-0.6l0.2-0.4c0-0.1,0.1-0.1,0.2-0.1l6,0.9l-5.4-2.3c1.2-2.3,3.1-5.8,3.1-5.8
					s1.5-3.2,1.3-4.4c0,0,0-0.1,0-0.1c0-0.1,0.1-0.1,0.1-0.2l-0.1,0c0,0-1.7,2.7-2.6,3.9c0.1-0.1,0.2-0.2,0.3-0.3l-4.7,8.7
					c0,0-0.2,0.6,0,1.2c0.1,0.3,1.2,3.3,2.2,5.9l-3.7-0.8l0,0l-4.7-1.4l0-2.2l-2.1,0c0,0-1.3-1.2-2.3-2.9c-1-1.7-2.2-4.5-2.2-4.5
					l1.7-1.6l-2.9-0.4c0,0-0.1-0.4-0.6-2.9c-0.1-0.6-0.2-1.1-0.3-1.6l0,0c0,0,0-0.2-0.1-0.5c0-0.1,0-0.3,0-0.4c0,0,0,0,0,0
					c0-0.3-0.1-0.7-0.1-1.1c-0.1-1.6,0-2.2,0.1-2.3c0.1-0.1,0.7-0.3,2.5-0.7c1.2-0.2,2.2-0.3,2.2-0.3l0.5-0.1l0.7-2
					c0.1-0.1,0.8-2.2,1.8-4.1l0.3-0.5L48,39.2c0,0-3-3.2-2.9-6.9c0.1-1.3,0.4-3,1.7-3.7c1.1-0.6,3.6-0.7,8.6,2.4l0.3,0.2L56,31
					c0.1,0,4.6-1.1,8-0.9L64.9,30.2z M64.1,30"/>
				<path class="st0" d="M53.5,37.1l-3.4,2.8l0.2-0.1c1.8-0.9,3.9-1.1,5.9-0.6L59,40l5.2-1.5l-4.6,0.3L53.5,37.1z"/>
				<path class="st0" d="M63.6,32l1.5-2.2L60.3,31l-5,3.3l3.3-1.1C60.2,32.7,61.9,32.3,63.6,32L63.6,32L63.6,32z"/>
				<path class="st0" d="M46.2,57.1l5.1,3.3l4.4-1.7c0,0-0.9,0.1-1.9,0.2c-1.9,0.2-3.9-0.5-5.3-1.8l-2.4-2.1L46.2,57.1z"/>
				<path class="st0" d="M47.6,61.8l-0.4-0.2l1.2,1.8l2.8,0.5l3.5-3.2l-3.2,1.4c-0.6,0.3-1.3,0.3-1.9,0.2l-0.1,0
					C49,62.3,48.3,62.1,47.6,61.8z"/>
				<path class="st0" d="M77.4,37.1l3.4,2.8l-0.2-0.1c-1.8-0.9-3.9-1.1-5.9-0.6L71.9,40l-5.2-1.5l4.6,0.3L77.4,37.1z"/>
				<path class="st0" d="M67.3,32l-1.5-2.2l4.8,1.2l5,3.3l-3.3-1.1C70.7,32.7,69,32.3,67.3,32L67.3,32z"/>
				<path class="st0" d="M84.7,57.1l-5.1,3.3l-4.4-1.7c0,0,0.9,0.1,1.9,0.2c1.9,0.2,3.9-0.5,5.3-1.8l2.4-2.1L84.7,57.1z"/>
				<path class="st0" d="M83.3,61.8l0.4-0.2l-1.2,1.8L79.6,64l-3.5-3.2l3.2,1.4c0.6,0.3,1.3,0.3,1.9,0.2l0.1,0
					C81.9,62.3,82.6,62.1,83.3,61.8z"/>
				<path class="st0" d="M66.9,30.1"/>
				<polygon class="st0" points="72.1,35.7 65.4,34.1 65.4,34.1 65.4,34.1 65.4,34.1 65.4,34.1 58.8,35.7 63.7,35.7 65.4,35.8 
					65.4,35.8 65.4,35.8 65.4,35.8 65.4,35.8 67.2,35.7 				"/>
			</g>
			<path class="st0" d="M69.8,59L69.8,59c-0.4-0.9-1.5-1.3-2.4-0.9L65.4,59l-1.9-0.9c-0.9-0.4-2,0-2.4,0.9c-0.4,0.9-0.1,2,0.8,2.5
				l3.5,1.8h0l3.5-1.8C69.8,61,70.2,59.9,69.8,59z"/>
		</g>
		<path class="st1" d="M84.7,49c0-2.6-1.3-4.8-3.3-6c-1.4-0.8-3.5-1-4.7-1c0,0-1.9-0.1-3.7,0v0h-7.5h0h-7.5v0c-1.7-0.1-3.7,0-3.7,0
			c-1.3,0-3.3,0.1-4.7,1c-2,1.2-3.3,3.4-3.3,6c0,0-0.2,2.2,0.9,4.4c2,3.8,6.1,3.9,6.1,3.9c5.7,0,10.3-4.6,10.3-10.3
			c0-0.1,0-0.1,0-0.2h1.9h0h1.9c0,0.1,0,0.1,0,0.2c0,5.7,4.6,10.3,10.3,10.3c0,0,4.2-0.1,6.1-3.9C84.9,51.3,84.7,49,84.7,49z
			 M67.6,45.2h-2.2h0h-2.2c-0.2-0.5-0.4-1-0.8-1.4h3h0h3C68.1,44.2,67.8,44.7,67.6,45.2z"/>
	</g>
</g>
</svg>
