<svg xmlns="http://www.w3.org/2000/svg" width="39" height="41" viewBox="0 0 39 41">
    <g fill="none" fill-rule="evenodd">
        <path stroke="#262626" stroke-linejoin="round" stroke-width="2.5" d="M2 24h35c-1.655 8.558-8.86 15-17.5 15S3.655 32.558 2 24z"/>
        <path fill="#262626" fill-rule="nonzero" d="M14.744 10.814c.166.481-.128.993-.656 1.144-.529.15-1.091-.117-1.257-.598l-.653-1.898c-.449-1.424-.036-2.949 1.09-4.045.792-.771.95-1.872.407-2.782l-.768-1.286c-.264-.443-.085-.997.402-1.238.486-.24 1.095-.077 1.36.366l.768 1.286c.958 1.603.675 3.557-.705 4.9-.647.63-.88 1.492-.634 2.275l.646 1.876zM19.744 10.814c.166.481-.128.993-.656 1.144-.529.15-1.091-.117-1.257-.598l-.653-1.898c-.449-1.424-.036-2.949 1.09-4.045.792-.771.95-1.872.407-2.782l-.768-1.286c-.264-.443-.085-.997.402-1.238.486-.24 1.095-.077 1.36.366l.768 1.286c.958 1.603.675 3.557-.705 4.9-.647.63-.88 1.492-.634 2.275l.646 1.876zM25.744 10.814c.166.481-.128.993-.656 1.144-.529.15-1.091-.117-1.257-.598l-.653-1.898c-.449-1.424-.036-2.949 1.09-4.045.792-.771.95-1.872.407-2.782l-.768-1.286c-.264-.443-.085-.997.402-1.238.486-.24 1.095-.077 1.36.366l.768 1.286c.958 1.603.675 3.557-.705 4.9-.647.63-.88 1.492-.634 2.275l.646 1.876z"/>
        <path stroke="#262626" stroke-linejoin="round" stroke-width="2.5" d="M30 24c-.276-3.356-3.226-6-6.832-6-2.588 0-4.84 1.362-6.008 3.372-1.059-1.221-2.665-2-4.461-2C9.816 19.371 7.433 21.377 7 24h23z"/>
    </g>
</svg>
