<svg xmlns="http://www.w3.org/2000/svg" width="42" height="42" viewBox="0 0 42 42">
    <g fill="none" fill-rule="evenodd" stroke="#262626">
        <path stroke-width="2.5" d="M40 21c0 1.59-2.654 2.81-3.045 4.277-.406 1.517 1.27 3.898.502 5.226-.78 1.348-3.687 1.08-4.781 2.174-1.094 1.094-.826 4-2.174 4.78-1.328.768-3.71-.908-5.225-.502C23.809 37.346 22.59 40 21 40c-1.59 0-2.81-2.654-4.277-3.045-1.517-.406-3.898 1.27-5.226.502-1.347-.78-1.08-3.687-2.174-4.78-1.093-1.095-4-.827-4.78-2.174-.768-1.33.908-3.71.502-5.226C4.654 23.81 2 22.59 2 21c0-1.59 2.654-2.81 3.045-4.275.406-1.519-1.27-3.899-.502-5.228.78-1.347 3.687-1.08 4.78-2.174 1.095-1.093.827-4 2.175-4.78 1.328-.768 3.708.91 5.225.502C18.19 4.654 19.41 2 21 2c1.59 0 2.81 2.654 4.277 3.045 1.517.407 3.897-1.27 5.226-.5 1.347.779 1.08 3.685 2.174 4.78 1.093 1.093 4 .825 4.78 2.173.768 1.328-.908 3.71-.502 5.227C37.346 18.19 40 19.41 40 21z"/>
        <g stroke-width="1.5" transform="translate(15 14)">
            <path stroke-linecap="square" d="M.55 14.423L10.45.577"/>
            <circle cx="9.5" cy="12.5" r="2.5"/>
            <circle cx="2.5" cy="2.5" r="2.5"/>
        </g>
    </g>
</svg>
